<svg xmlns="http://www.w3.org/2000/svg" aria-hidden="true" style="position:absolute;width:0;height:0;overflow:hidden"><defs><symbol id="icon-printer" viewBox="0 0 32 32"><path d="M8 2h16v4H8V2zM30 8H2c-1.1 0-2 .9-2 2v10c0 1.1.9 2 2 2h6v8h16v-8h6c1.1 0 2-.9 2-2V10c0-1.1-.9-2-2-2zM4 14a2 2 0 1 1-.001-3.999A2 2 0 0 1 4 14zm18 14H10V18h12v10z"/></symbol><symbol id="icon-tablet" viewBox="0 0 32 32"><path d="M23 0H9C7.35 0 6 1.35 6 3v26c0 1.65 1.35 3 3 3h14c1.65 0 3-1.35 3-3V3c0-1.65-1.35-3-3-3zM12 1.5h8v1h-8v-1zM16 30a2 2 0 1 1-.001-3.999A2 2 0 0 1 16 30zm8-6H8V4h16v20z"/></symbol><symbol id="icon-download" viewBox="0 0 32 32"><path d="m16 18 8-8h-6V2h-4v8H8zm7.273-3.273-2.242 2.242L29.159 20l-13.158 4.907L2.843 20l8.127-3.031-2.242-2.242L.001 18v8l16 6 16-6v-8z"/></symbol><symbol id="icon-contacts" viewBox="0 0 36 32"><path d="M15 4c-1.583 0-3.112.248-4.543.738-1.341.459-2.535 1.107-3.547 1.926C5.034 8.182 4 10.127 4 12.138c0 1.125.315 2.217.935 3.247.646 1.073 1.622 2.056 2.821 2.842a3.998 3.998 0 0 1 1.761 2.748c.028.187.051.375.068.564.085-.079.169-.16.254-.244a4 4 0 0 1 3.326-1.134c.605.077 1.223.116 1.836.116 1.583 0 3.112-.248 4.543-.738 1.341-.459 2.535-1.107 3.547-1.926 1.876-1.518 2.91-3.463 2.91-5.474s-1.033-3.956-2.91-5.474c-1.012-.819-2.206-1.467-3.547-1.926a13.992 13.992 0 0 0-4.543-.738zm0-4c8.284 0 15 5.435 15 12.139s-6.716 12.139-15 12.139c-.796 0-1.576-.051-2.339-.147C9.439 27.34 5.718 27.916 2 28v-.785c2.008-.98 3.625-2.765 3.625-4.804 0-.285-.022-.564-.063-.837C2.17 19.349 0 15.949 0 12.14 0 5.436 6.716.001 15 .001zm16.125 27.209c0 1.748 1.135 3.278 2.875 4.118V32c-3.223-.072-6.181-.566-8.973-3.316-.661.083-1.337.126-2.027.126-2.983 0-5.732-.805-7.925-2.157 4.521-.016 8.789-1.464 12.026-4.084 1.631-1.32 2.919-2.87 3.825-4.605.961-1.84 1.449-3.799 1.449-5.825 0-.326-.014-.651-.039-.974C34.604 13.038 36 15.591 36 18.405c0 3.265-1.88 6.179-4.82 8.086a4.722 4.722 0 0 0-.055.718z"/></symbol><symbol id="icon-trophy" viewBox="0 0 32 32"><path d="M26 6V2H6v4H0v4a6 6 0 0 0 7.801 5.725A10.006 10.006 0 0 0 14 19.8V26h-2a4 4 0 0 0-4 4h16a4 4 0 0 0-4-4h-2v-6.2a10.006 10.006 0 0 0 6.199-4.075A6 6 0 0 0 32 10V6h-6zM6 13.625A3.629 3.629 0 0 1 2.375 10V8H6v2c0 1.256.232 2.457.655 3.565-.213.039-.431.06-.655.06zM29.625 10a3.629 3.629 0 0 1-4.28 3.565A9.968 9.968 0 0 0 26 10V8h3.625v2z"/></symbol><symbol id="icon-about" viewBox="0 0 32 32"><path d="M14 22h4v4h-4zm8-14a2 2 0 0 1 2 2v6l-6 4h-4v-2l6-4v-2H10V8h12zm-6-5c-3.472 0-6.737 1.352-9.192 3.808S3 12.528 3 16c0 3.472 1.352 6.737 3.808 9.192S12.528 29 16 29c3.472 0 6.737-1.352 9.192-3.808S29 19.472 29 16c0-3.472-1.352-6.737-3.808-9.192S19.472 3 16 3zm0-3c8.837 0 16 7.163 16 16s-7.163 16-16 16S0 24.837 0 16 7.163 0 16 0z"/></symbol><symbol id="icon-mail" viewBox="0 0 32 32"><path d="M26.667 0H5.334C2.4 0 0 2.4 0 5.334v21.332C0 29.602 2.4 32 5.334 32h21.333C29.601 32 32 29.602 32 26.666V5.334C32 2.4 29.601 0 26.667 0zm0 4c.25 0 .486.073.688.198L16 13.586 4.645 4.199c.202-.125.439-.198.689-.198h21.333zM5.334 28a1.32 1.32 0 0 1-.178-.013l7.051-9.78-.914-.914L4 24.586V5.488L16 20 28 5.488v19.098l-7.293-7.293-.914.914 7.051 9.78a1.294 1.294 0 0 1-.177.013H5.334z"/></symbol><symbol id="icon-facebook" viewBox="0 0 32 32"><path d="M19 6h5V0h-5c-3.86 0-7 3.14-7 7v3H8v6h4v16h6V16h5l1-6h-6V7c0-.542.458-1 1-1z"/></symbol><symbol id="icon-instagram" viewBox="0 0 32 32"><path d="M16 2.881c4.275 0 4.781.019 6.462.094 1.563.069 2.406.331 2.969.55a4.952 4.952 0 0 1 1.837 1.194 5.015 5.015 0 0 1 1.2 1.838c.219.563.481 1.412.55 2.969.075 1.688.094 2.194.094 6.463s-.019 4.781-.094 6.463c-.069 1.563-.331 2.406-.55 2.969a4.94 4.94 0 0 1-1.194 1.837 5.02 5.02 0 0 1-1.837 1.2c-.563.219-1.413.481-2.969.55-1.688.075-2.194.094-6.463.094s-4.781-.019-6.463-.094c-1.563-.069-2.406-.331-2.969-.55a4.952 4.952 0 0 1-1.838-1.194 5.02 5.02 0 0 1-1.2-1.837c-.219-.563-.481-1.413-.55-2.969-.075-1.688-.094-2.194-.094-6.463s.019-4.781.094-6.463c.069-1.563.331-2.406.55-2.969a4.964 4.964 0 0 1 1.194-1.838 5.015 5.015 0 0 1 1.838-1.2c.563-.219 1.412-.481 2.969-.55 1.681-.075 2.188-.094 6.463-.094zM16 0c-4.344 0-4.887.019-6.594.094-1.7.075-2.869.35-3.881.744-1.056.412-1.95.956-2.837 1.85a7.833 7.833 0 0 0-1.85 2.831C.444 6.538.169 7.7.094 9.4.019 11.113 0 11.656 0 16s.019 4.887.094 6.594c.075 1.7.35 2.869.744 3.881.413 1.056.956 1.95 1.85 2.837a7.82 7.82 0 0 0 2.831 1.844c1.019.394 2.181.669 3.881.744 1.706.075 2.25.094 6.594.094s4.888-.019 6.594-.094c1.7-.075 2.869-.35 3.881-.744 1.05-.406 1.944-.956 2.831-1.844s1.438-1.781 1.844-2.831c.394-1.019.669-2.181.744-3.881.075-1.706.094-2.25.094-6.594s-.019-4.887-.094-6.594c-.075-1.7-.35-2.869-.744-3.881a7.506 7.506 0 0 0-1.831-2.844A7.82 7.82 0 0 0 26.482.843C25.463.449 24.301.174 22.601.099c-1.712-.081-2.256-.1-6.6-.1z"/><path d="M16 7.781c-4.537 0-8.219 3.681-8.219 8.219s3.681 8.219 8.219 8.219 8.219-3.681 8.219-8.219A8.221 8.221 0 0 0 16 7.781zm0 13.55a5.331 5.331 0 1 1 0-10.663 5.331 5.331 0 0 1 0 10.663zM26.462 7.456a1.919 1.919 0 1 1-3.838 0 1.919 1.919 0 0 1 3.838 0z"/></symbol><symbol id="icon-youtube" viewBox="0 0 32 32"><path d="M31.681 9.6s-.313-2.206-1.275-3.175C29.187 5.15 27.825 5.144 27.2 5.069c-4.475-.325-11.194-.325-11.194-.325h-.012s-6.719 0-11.194.325c-.625.075-1.987.081-3.206 1.356C.631 7.394.325 9.6.325 9.6s-.319 2.588-.319 5.181v2.425c0 2.587.319 5.181.319 5.181s.313 2.206 1.269 3.175c1.219 1.275 2.819 1.231 3.531 1.369 2.563.244 10.881.319 10.881.319s6.725-.012 11.2-.331c.625-.075 1.988-.081 3.206-1.356.962-.969 1.275-3.175 1.275-3.175s.319-2.587.319-5.181v-2.425c-.006-2.588-.325-5.181-.325-5.181zM12.694 20.15v-8.994l8.644 4.513-8.644 4.481z"/></symbol></defs></svg>