<svg width="200" height="200" viewBox="0 0 200 200" fill="none" xmlns="http://www.w3.org/2000/svg">
<path d="M50 12.5H150V37.5H50V12.5Z" fill="#0A2365"/>
<path d="M187.5 50H12.5C5.625 50 0 55.625 0 62.5V125C0 131.875 5.625 137.5 12.5 137.5H50V187.5H150V137.5H187.5C194.375 137.5 200 131.875 200 125V62.5C200 55.625 194.375 50 187.5 50ZM25 87.5C18.1 87.5 12.5 81.9 12.5 75C12.5 68.1 18.1 62.5 25 62.5C31.9 62.5 37.5 68.1 37.5 75C37.5 81.9 31.9 87.5 25 87.5ZM137.5 175H62.5V112.5H137.5V175Z" fill="#0A2365"/>
</svg>
