<svg width="200" height="200" viewBox="0 0 200 200" fill="none" xmlns="http://www.w3.org/2000/svg">
<path d="M143.75 0H56.25C45.9375 0 37.5 8.4375 37.5 18.75V181.25C37.5 191.562 45.9375 200 56.25 200H143.75C154.062 200 162.5 191.562 162.5 181.25V18.75C162.5 8.4375 154.062 0 143.75 0ZM75 9.375H125V15.625H75V9.375ZM100 187.5C93.1 187.5 87.5 181.9 87.5 175C87.5 168.1 93.1 162.5 100 162.5C106.9 162.5 112.5 168.1 112.5 175C112.5 181.9 106.9 187.5 100 187.5ZM150 150H50V25H150V150Z" fill="#0A2365"/>
</svg>
